<svg id="Layer_1" data-name="Layer 1" xmlns="http://www.w3.org/2000/svg" viewBox="0 0 547 635.4"><title>logo_blog</title><path d="M2163.93,1344.86V1030.11a1.7,1.7,0,0,0-.14-.57v-.07a2.71,2.71,0,0,0-.64-1.08h0a2.23,2.23,0,0,0-.78-.65L1891.93,870.43h0c-.14-.07-.21-.14-.36-.14s-.07,0-.14-.07-.14-.07-.21-.07a159732.1,159732.1,0,0,0-.43-.14h-.71a159732.1,159732.1,0,0,1-.43.14c-.07,0-.14.07-.21.07s-.07,0-.14.07-.21.14-.36.14h0l-270.36,157.23a3.43,3.43,0,0,0-.78.65h0a3.32,3.32,0,0,0-.64,1.08v.07c-.07.22-.07.36-.14.57v315.55a.43.43,0,0,0,.07.29c0,.07.07.14.07.22s.07.14.07.22.07.22.14.29v.14c.07.07.14.22.21.29l.14.14c.07.07.07.14.14.14a.15.15,0,0,1,.14.14l.14.14c.07.07.21.14.29.22h.07L1888.65,1505h.07l.14.07a.07.07,0,0,1,.07.07c.21.07.36.22.57.22h.07c.14,0,.21.07.36.07h.86c.14,0,.21-.07.36-.07h.07a4.89,4.89,0,0,0,.57-.22.07.07,0,0,0,.07-.07l.14-.07h.07l270.15-157.16a.07.07,0,0,0,.07-.07.54.54,0,0,1,.29-.14c.07,0,.07-.07.14-.07a3.31,3.31,0,0,0,.5-.5l.07-.07a1.57,1.57,0,0,0,.21-.36h0a3.19,3.19,0,0,0,.43-1.15h0c0-.14.07-.29.07-.43S2163.93,1344.93,2163.93,1344.86Zm-9.62-314.33-118.79,69.07a13.83,13.83,0,0,0-10.26-4.52,13.37,13.37,0,0,0-3.78.57L1899.12,882.06Zm-273.93,304.63-121.71-70.79V1122.8a13.43,13.43,0,0,0,6.7-4l121.79,70.86v141.65A14,14,0,0,0,1880.38,1335.17Zm131.48-221.85L1890.36,1184l-121.79-70.86a15.33,15.33,0,0,0,.57-4.09,16.87,16.87,0,0,0-.5-3.81l121.71-70.72,121.43,70.65a14.28,14.28,0,0,0-.57,3.95A19.54,19.54,0,0,0,2011.86,1113.32Zm-118.29,218V1189.64l121.64-70.72a14,14,0,0,0,6.91,3.95v141.51l-121.79,70.79A14,14,0,0,0,1893.56,1331.29Zm-3.21-451.6,125.49,219-.86.86L1892,1028a3.2,3.2,0,0,0-3.21,0l-123.21,71.65a8.16,8.16,0,0,0-.78-.79Zm-8.77,2.37-122.36,213.59a15,15,0,0,0-4.06-.57,14,14,0,0,0-10.19,4.45l-118.58-69ZM1623.2,1036.14l118.58,69a15.22,15.22,0,0,0-.57,4,14.2,14.2,0,0,0,4.42,10.27L1623.2,1332.94Zm127.91,86.51a5.9,5.9,0,0,0,1.07.29v143.31a3.36,3.36,0,0,0,1.57,2.8L1877,1340.7a6,6,0,0,0-.29,1.08h-251.2ZM1632,1348.24h244.78a14.11,14.11,0,0,0,10.4,10.48v137.92Zm261.6,148.48v-138a14.11,14.11,0,0,0,10.4-10.48h244.78Zm10.4-154.94c-.07-.36-.21-.72-.29-1.08L2026.89,1269a3.2,3.2,0,0,0,1.57-2.8V1122.87a5.9,5.9,0,0,0,1.07-.29l125.63,219.2Zm253.55-8.83L2035,1119.21a14,14,0,0,0,4.2-10.12,14.69,14.69,0,0,0-.57-3.95L2157.44,1036v297Z" transform="translate(-1617 -870)" style="fill:#1b1464"/><text transform="translate(20.11 329.5) rotate(-90)" style="font-size:12px;fill:#1b1464;font-family:MyriadPro-Regular, Myriad Pro"><tspan style="letter-spacing:-0.010986328125em">C</tspan><tspan x="6.83" y="0">ells </tspan><tspan x="25.8" y="0" style="letter-spacing:0.009928385416666666em">I</tspan><tspan x="28.79" y="0" style="letter-spacing:-0.003987630208333333em">n</tspan><tspan x="35.4" y="0" style="letter-spacing:-0.005940755208333333em">t</tspan><tspan x="39.3" y="0">e</tspan><tspan x="45.31" y="0" style="letter-spacing:0.003987630208333333em">r</tspan><tspan x="49.28" y="0">linked</tspan></text><text transform="translate(195.17 576.61) rotate(29.77)" style="font-size:12px;font-family:MyriadPro-Regular, Myriad Pro">KIC 8462852</text><path d="M1903,1095.3a23.43,23.43,0,0,0-7.38-3,16.07,16.07,0,0,0-4-.59l-.62,0-.62,0a16.07,16.07,0,0,0-4,.59,23.41,23.41,0,0,0-7.38,3c-11.3,5.81-23.37,16.7-23.37,16.7s12.06,10.89,23.37,16.7a23.43,23.43,0,0,0,7.38,3,16.06,16.06,0,0,0,4,.59l.62,0,.62,0a16.12,16.12,0,0,0,4-.59,23.43,23.43,0,0,0,7.38-3c11.3-5.81,23.37-16.7,23.37-16.7S1914.32,1101.11,1903,1095.3Zm-12,31.86a15.17,15.17,0,1,1,15.17-15.17A15.17,15.17,0,0,1,1891,1127.17Z" transform="translate(-1617 -870)"/><path d="M1891,1100.62a11.38,11.38,0,1,0,11.38,11.38A11.38,11.38,0,0,0,1891,1100.62Zm4.42,13.58a5.54,5.54,0,1,1,5.54-5.54A5.54,5.54,0,0,1,1895.42,1114.21Z" transform="translate(-1617 -870)"/><path d="M1874.88,1462.7a3.36,3.36,0,0,0-2.71,1.88,3,3,0,0,0-.32,1.32,5.23,5.23,0,0,0,.56,2.47,7.47,7.47,0,0,0,1.9,2.46l.09.08,0,.08a3.54,3.54,0,0,1-.4.54,1.68,1.68,0,0,1-.73.45,1.32,1.32,0,0,0-.55.34c-.53.52-.85,1.43-1.29,3.61-.39,1.94-.45,2.57-.29,2.88a.28.28,0,0,0,.28.18c.25,0,.36,0,.42-.21a5.8,5.8,0,0,0,.09-.59,7.82,7.82,0,0,1,.85-3q.18-.19.31,0a2.86,2.86,0,0,1,.19,1.24c0,1.33.12,2.26.46,5.48a11,11,0,0,0,.22,1.79c.11.36.33.64.5.64a.27.27,0,0,0,.19-.16c.09-.17.1-.35.11-1.84a16.79,16.79,0,0,1,.16-2.86,2.27,2.27,0,0,1,.32-.93s0,0,.08,0a2.38,2.38,0,0,1,.31.94,17.37,17.37,0,0,1,.16,3,11.13,11.13,0,0,0,0,1.61.49.49,0,0,0,.13.26c.1.1.24.07.38-.1a1.75,1.75,0,0,0,.33-1.06c0-.19.08-.79.14-1.35.3-2.77.41-4.06.45-5.35,0-.8.08-1.14.22-1.3s.26-.07.43.27a10.4,10.4,0,0,1,.67,2.57c.1.76.12.86.24.93a.46.46,0,0,0,.37,0c.19-.07.26-.24.25-.65a12.51,12.51,0,0,0-.32-2.13,13.06,13.06,0,0,0-.88-3.18,1.72,1.72,0,0,0-1-1l-.35-.14a2,2,0,0,1-.5-.43,3.1,3.1,0,0,1-.33-.48,1.45,1.45,0,0,1,.2-.2,7.58,7.58,0,0,0,2.06-3.07,3.91,3.91,0,0,0-.17-3.33,3.37,3.37,0,0,0-2.62-1.65A2.67,2.67,0,0,0,1874.88,1462.7Zm-1.52,3.33.31.12a2.09,2.09,0,0,1,1.2,1.93,2.35,2.35,0,0,1,0,.32l0,.13h-.18a2.07,2.07,0,0,1-2-2.32l0-.2h.29A1.81,1.81,0,0,1,1873.36,1466Zm4.36,0a2.21,2.21,0,0,1,0,.24,2.08,2.08,0,0,1-1.09,2,2.25,2.25,0,0,1-1,.22c-.11,0-.12,0-.14-.07a2.69,2.69,0,0,1,0-.4,1.57,1.57,0,0,1,0-.52,2,2,0,0,1,.55-1,2,2,0,0,1,.8-.5l.18,0A4.19,4.19,0,0,1,1877.72,1466Z" transform="translate(-1617 -870)"/><path d="M1989,1308.65a3.48,3.48,0,0,0-.68.15,2.64,2.64,0,0,0-1.57,3.69l.08.17-1.84,1.77-1.84,1.77-.22-.07a36,36,0,0,0-7.75-1.86,11.68,11.68,0,0,0-4.52.19A3.25,3.25,0,0,0,1968,1318a6.4,6.4,0,0,0,.13,1.35,16.1,16.1,0,0,0,2.21,5.14,18.86,18.86,0,0,0,4.28,4.74c.44.35,1.25.94,1.67,1.22l.28.2-2.57,5.55c-1.41,3-2.57,5.55-2.57,5.57a.48.48,0,0,0,.18.24s.6,0,1.82,0c1.91,0,1.84,0,1.94-.12s.14-.25.25-.48l.21-.43,3.16-1.53,3.16-1.53,1.41.91,3.19,2,1.77,1.14h3.81l.08-.07c.16-.15.26.15-1.26-3.88l-1.37-3.63.23,0a21.83,21.83,0,0,0,7.38-2,9.55,9.55,0,0,0,2.57-1.64,2.23,2.23,0,0,0,.75-1.18,4.14,4.14,0,0,0,0-1.3,6.1,6.1,0,0,0-1.65-2.81c-.27-.28-1.25-1.2-1.68-1.57a36.85,36.85,0,0,0-7.13-4.63l-.5-.27a14.92,14.92,0,0,1,.11-2.46c.08-1.34.15-2.47.16-2.52s0-.09.15-.13a2.85,2.85,0,0,0,1.54-1.24,2.6,2.6,0,0,0-.51-3.22,3,3,0,0,0-1.4-.7A4.11,4.11,0,0,0,1989,1308.65Zm-1.65,5.24c0,.1-.29.71-.75,1.7l-.72,1.55-.5-.19-.61-.24c-.06,0-.12-.06-.12-.07s2.71-2.93,2.72-2.91A.61.61,0,0,1,1987.38,1313.89Zm1.19,2.33c-.08,1.1-.15,2-.16,2a1.47,1.47,0,0,1-.39-.17l-.61-.29c-.2-.09-.23-.11-.22-.14s1.51-3.46,1.52-3.45S1988.65,1315.12,1988.57,1316.22Zm-15.15-.57a27.44,27.44,0,0,1,6,1.16c.64.19,2.31.7,2.33.72s-1.19,1.18-2.66,2.6l-2.68,2.59-.31-.19a24,24,0,0,1-4.77-3.63,5.21,5.21,0,0,1-.9-1.28,1.47,1.47,0,0,1-.16-.67,1,1,0,0,1,.16-.57C1970.77,1315.82,1971.83,1315.56,1973.42,1315.65Zm10.75,2.81c.85.33.95.37.93.41s-3.12,6.74-3.15,6.75-1.93-.91-2.7-1.31c-.52-.27-1.62-.85-1.65-.88s5.54-5.33,5.57-5.34Zm3.19,1.36.93.43v.15c0,.08-.1,1.81-.22,3.85s-.21,3.71-.21,3.71-1.27-.44-2-.7-1.34-.52-1.93-.77-.74-.31-.73-.34,3.15-6.78,3.17-6.78Zm2.43,1.16,1.44.76c4,2.14,6.93,4.5,7.62,6a1.42,1.42,0,0,1,.1,1.07c-.22.55-.95.85-2.13.9a24.09,24.09,0,0,1-7.24-1.23l-.39-.12v-.2c0-.11.09-1.79.19-3.72s.18-3.53.19-3.55S1989.6,1320.88,1989.79,1321Zm-9.44,11.59a25.59,25.59,0,0,0,5,1.47l.43.09.09.2c.06.15.08.21.05.22l-3.64,1.82s-3.22-2.06-3.28-2.11.16-.41.39-.9l.43-.94,0,0Zm-.73,3.68,1.23.79-1.61.77-2.06,1-.45.21.09-.18.82-1.77c.4-.87.74-1.58.74-1.58Zm6.82-.28c.31.8,1.53,4,1.53,4.05s-4.38-2.8-4.38-2.81,2.76-1.36,2.79-1.37A.4.4,0,0,1,1986.44,1336Z" transform="translate(-1617 -870)"/><path d="M2079.83,1029.06c-4.28.59-10.12,3-16.13,6.65l-1.19.72-1.35.05a12.14,12.14,0,0,0-5.14,1.24,13.2,13.2,0,0,0-7,8.49l-.15.61-2.08,2.07a50.07,50.07,0,0,0-8.5,10.58c-2.9,5.09-2.66,8.9.65,10.3,1.56.66,4.31.58,7.3-.2a52.56,52.56,0,0,0,13.89-6.38l.75-.46h.9a13.15,13.15,0,0,0,12.53-9.8l.15-.56,2-2c4.26-4.25,7.12-7.89,8.92-11.37a11.68,11.68,0,0,0,1.61-5.35,4.09,4.09,0,0,0-1.37-3.4,5.45,5.45,0,0,0-3.92-1.23A16,16,0,0,0,2079.83,1029.06Zm3.38,1.74a2.6,2.6,0,0,1,2.05,1.81c.66,2.22-1.25,6.42-5.1,11.26a53.26,53.26,0,0,1-4.42,4.87,90.44,90.44,0,0,1-14.39,11.68,57.94,57.94,0,0,1-13.46,6.93,19.06,19.06,0,0,1-6.18,1.23c-2.1,0-3.33-.65-3.7-1.94a6.19,6.19,0,0,1,.18-2.94c1-3.45,4.46-8.38,9.11-13l1.18-1.17.11,1.23.11,1.23-.76,1c-1.9,2.61-2.75,4.6-2.66,6.29.16,3.17,3.46,3.88,8.72,1.89a44.79,44.79,0,0,0,7.69-4c6.66-4.38,12.48-10.13,14.65-14.49a7.08,7.08,0,0,0,.95-3.15,2.89,2.89,0,0,0-.15-1.38,3.31,3.31,0,0,0-1.27-1.53c-1.45-.86-4.27-.57-7.65.76l-.91.36-.81-.33c-.45-.18-1-.38-1.17-.43l-.36-.11.76-.45c5-3,10.56-5.2,14.13-5.66A11.37,11.37,0,0,1,2083.21,1030.8Zm-8.25,7.26c.55.3.72.67.66,1.45a6.21,6.21,0,0,1-.8,2.46,9.44,9.44,0,0,1-1.27,2s-.1-.07-.13-.17a14.82,14.82,0,0,0-1.43-2.28,15.16,15.16,0,0,0-2.39-2.37,1.2,1.2,0,0,1-.35-.31,12.42,12.42,0,0,1,2.18-.73,7.55,7.55,0,0,1,2.35-.27A2.32,2.32,0,0,1,2075,1038.06Zm-11.82.18a11.37,11.37,0,0,1,7.46,4.27,12.19,12.19,0,0,1,1.59,2.71c.17.5.25.35-1.26,2a54.44,54.44,0,0,1-14.44,11l-1.48.74-.26-.19a15,15,0,0,1-2.29-2.36,11.28,11.28,0,0,1-2.19-6.81,10.77,10.77,0,0,1,1.26-5.38,10.39,10.39,0,0,1,2.06-2.77A11,11,0,0,1,2063.14,1038.23ZM2050,1055.59a13,13,0,0,0,2.46,3.36,5.6,5.6,0,0,1,.67.72,12.22,12.22,0,0,1-2.46.74,5.85,5.85,0,0,1-2.91,0,1.54,1.54,0,0,1-.56-.42c-.54-.83,0-2.73,1.53-5l.58-.91.19.46C2049.55,1054.74,2049.79,1055.23,2050,1055.59Zm21.7-.4a11.87,11.87,0,0,1-7.51,5.65,2.47,2.47,0,0,1-.53.1l1.48-1.06c2.27-1.63,5.1-3.82,6.45-5a1.68,1.68,0,0,1,.39-.28A2.82,2.82,0,0,1,2071.66,1055.19Z" transform="translate(-1617 -870)"/><path d="M1719.9,1035.15l-1.63.81h0l-1.75.87c-4.78,2.37-6.56,8.57-4,13.8a.44.44,0,0,0,.56.22l15.14-7.5h0l4.87-2.41a.44.44,0,0,0,.17-.58C1730.69,1035.13,1724.7,1032.78,1719.9,1035.15Zm-1.86,2.18a1.38,1.38,0,0,1,.63-.58h0a1.63,1.63,0,0,1,.84-.15,10.09,10.09,0,0,1,7.65,5.45l.32.64-9.41,4.66-.32-.64A10.09,10.09,0,0,1,1718,1037.34Zm-1.13.29a11.11,11.11,0,0,0,.1,9.45l.33.67-4.24,2.1C1711,1045.14,1712.66,1039.73,1716.9,1037.63Zm11.3,4.74-.33-.67a11,11,0,0,0-7.46-5.81c4.26-2,9.48,0,11.93,4.42Z" transform="translate(-1617 -870)" style="fill:#1b1464"/><path d="M1731.55,1068.36l.3,2.94a.55.55,0,0,0,.21.36.41.41,0,0,0,.38,0l5.48-2.72a.33.33,0,0,0,.2-.33.45.45,0,0,0-.16-.39l-2.16-2a.39.39,0,0,0-.46-.07l-3.66,1.81C1731.61,1068,1731.52,1068.18,1731.55,1068.36Zm.85.24,3.17-1.57,1.44,1.38-4.39,2.17Z" transform="translate(-1617 -870)" style="fill:#1b1464"/><path d="M1729.51,1055.48l-.95-11.29-.8.4,1.1,12.88-9.51-8.72-.8.4,8.39,7.68-12-5.88-1,.47,15.1,7.38,1.73,3.5a2.16,2.16,0,0,0-.79,1.29,0,0,0,0,1,0,0l-1.52,12.25h0a1.71,1.71,0,0,0,.44,1.31,1.54,1.54,0,0,0,1.24.55,20,20,0,0,0,14.09-7,1.54,1.54,0,0,0,.32-1.32,1.73,1.73,0,0,0-.78-1.14h0l-9.11-5.22h0l-1.59-.94a0,0,0,0,0,0,0,2.28,2.28,0,0,0-1-.22,1.69,1.69,0,0,0-.57.08l-1.73-3.5,3.28-16.48-1,.47Zm14.22,14.12a.61.61,0,0,1-.14.57,18.94,18.94,0,0,1-6.09,4.74,19.57,19.57,0,0,1-7.46,2,.67.67,0,0,1-.54-.23,1.08,1.08,0,0,1-.19-.37l14.21-7A.74.74,0,0,1,1743.73,1069.61Zm-9.25-5.69,8.16,4.77-13.21,6.54,1.15-9.38Zm-2.34-1.17a1.25,1.25,0,0,1,.59.14l.82.49-2.85,1.41.11-.95a1.34,1.34,0,0,1,1.34-1.1Z" transform="translate(-1617 -870)" style="fill:#1b1464"/><path d="M1994,1428.86a3.13,3.13,0,0,1,.68.45l.95-.56a3.13,3.13,0,0,1-.07-.81Z" transform="translate(-1617 -870)"/><path d="M1975.42,1434.73l7.5-4.46-.43,3.26a4.1,4.1,0,0,1,.81-.14l.47-3.63.85-.51,3.41,1.32a4.1,4.1,0,0,1,.51-.65l-3.07-1.18,5.75-3.42-.43,3.26a4.1,4.1,0,0,1,.81-.14l.47-3.63.85-.51,3.41,1.32a4.1,4.1,0,0,1,.51-.65l-3.07-1.18,7.5-4.46a.4.4,0,0,0,.17-.53l-.87-1.47a.4.4,0,0,0-.54-.1l-6.82,4.05-1.62-2.72a5.68,5.68,0,0,0-1.55-1.69l-.4.72a5.07,5.07,0,0,1,1.24,1.39l1.63,2.75-10.74,6.39-1.63-2.75c-1.56-2.62-.44-6.18,2.54-8a7.09,7.09,0,0,1,2.39-.88l.51-.81a7.72,7.72,0,0,0-2.91.88l-1.28-2.16a.42.42,0,0,0-.71.42L1982,1417c-3.1,2.07-4.23,5.92-2.53,8.79l1.63,2.75-6.89,4.09a.4.4,0,0,0-.17.53l.87,1.47A.37.37,0,0,0,1975.42,1434.73Zm-.5-1.66,6.89-4.09,11.45-6.81,6.89-4.09.5.84-25.23,15Z" transform="translate(-1617 -870)"/><path d="M1987.43,1435.7a3.59,3.59,0,0,1,.21.73l1-.6a3.59,3.59,0,0,1-.54-.53Z" transform="translate(-1617 -870)"/><path d="M1985.69,1433.81a3.13,3.13,0,0,1,.68.45l.95-.56a3.13,3.13,0,0,1-.07-.81Z" transform="translate(-1617 -870)"/><path d="M1995.78,1430.74a3.59,3.59,0,0,1,.21.73l1-.6a3.59,3.59,0,0,1-.54-.53Z" transform="translate(-1617 -870)"/><path d="M1984.73,1431.06l-.31,2.34a5.9,5.9,0,0,1,.78.19l.27-2,1.86.71a3.88,3.88,0,0,1,.21-.78l-2.2-.85A.51.51,0,0,0,1984.73,1431.06Z" transform="translate(-1617 -870)"/><path d="M1993.06,1426.11l-.31,2.34a5.9,5.9,0,0,1,.78.19l.27-2,1.86.71a3.88,3.88,0,0,1,.21-.78l-2.2-.85A.51.51,0,0,0,1993.06,1426.11Z" transform="translate(-1617 -870)"/><path d="M2007.37,1410.69l-3.31,1.17a.48.48,0,0,0-.27.25l-.22.5-9.37-2.88a2,2,0,0,0-.07-.38,2.31,2.31,0,0,0-1.29-1.47,3,3,0,0,0-2.12-.07,3.07,3.07,0,0,0-1.71,1.38,2.65,2.65,0,0,0-.3,2,2.15,2.15,0,0,0,.23.55l-3.75,6.09a4,4,0,0,0-1.93.58,3.3,3.3,0,1,0,4.85.94,1.06,1.06,0,0,0-.17-.24l3.54-6.22a2.73,2.73,0,0,0,.66-.13,3,3,0,0,0,.61-.27,2.72,2.72,0,0,0,.38-.28l9.38,2.85-.22.5a.41.41,0,0,0,0,.34l1.59,2.68a.4.4,0,0,0,.47.15l3.32-1.21.07,0a.43.43,0,0,0,.21-.46.37.37,0,0,0-.51-.21l-3,1.1-1.35-2.26.69-1.54.38-.88h0l.3-.69,2.81-1,1.43,2.41a.42.42,0,0,0,.71-.42l-1.58-2.72A.4.4,0,0,0,2007.37,1410.69Zm-21.14,12.71a2.57,2.57,0,1,1,1.17-3.64A2.71,2.71,0,0,1,1986.23,1423.39Zm1.16-4.89a3.58,3.58,0,0,0-1.37-.63l3.44-5.59a2.27,2.27,0,0,0,.55.33,2.53,2.53,0,0,0,.63.19Zm4.53-6.49a2,2,0,0,1-1.5,0,1.77,1.77,0,0,1-.92-1.07,1.88,1.88,0,0,1,.23-1.44,2.12,2.12,0,0,1,.79-.78,2.19,2.19,0,0,1,2-.17,1.62,1.62,0,0,1,.91,1,1.83,1.83,0,0,1-.21,1.43A2.28,2.28,0,0,1,1991.92,1412Zm11.13,1.81-.22.5-9.13-2.8a.72.72,0,0,0,.12-.18,3.71,3.71,0,0,0,.34-.83l9.1,2.82Z" transform="translate(-1617 -870)"/><path d="M1983.59,1422a1.58,1.58,0,0,0,2.7-1.6,1.58,1.58,0,0,0-2.7,1.6Zm2-1.17a.75.75,0,1,1-1-.19A.7.7,0,0,1,1985.55,1420.85Z" transform="translate(-1617 -870)"/><path d="M1992,1410a.51.51,0,0,1-.06.43.81.81,0,0,1-.25.23.23.23,0,0,1-.13,0,.57.57,0,0,1-.46,0,.53.53,0,0,1-.21-.78.82.82,0,0,1,.39-.32.57.57,0,0,1,.46,0A.68.68,0,0,1,1992,1410Z" transform="translate(-1617 -870)"/><path d="M1987.22,1439l3.88-2.31,4.45-2.64,3.88-2.31,4.45-2.64,1.77-1.05a.37.37,0,1,0-.37-.63l-1,.59-1,.59a3.18,3.18,0,0,0-.11-2.88,3.72,3.72,0,0,0-6.34,3.77,3.11,3.11,0,0,0,2.48,1.48l-1,.59-2.34,1.39-1,.59a3.18,3.18,0,0,0-.11-2.88,3.72,3.72,0,0,0-6.34,3.77,3.11,3.11,0,0,0,2.48,1.48l-1.06.63-2.34,1.39-1,.59a3.18,3.18,0,0,0-.11-2.88,3.72,3.72,0,0,0-6.34,3.77,3.11,3.11,0,0,0,2.48,1.48l-1,.59-2.11,1.25a.37.37,0,1,0,.37.63l2.84-1.69Zm10.31-9.93a2.88,2.88,0,1,1,3.76.72A2.73,2.73,0,0,1,1997.53,1429Zm-8.33,5a2.88,2.88,0,1,1,3.76.72A2.73,2.73,0,0,1,1989.2,1434Zm-8.35,5a2.88,2.88,0,1,1,3.76.72A2.73,2.73,0,0,1,1980.85,1439Z" transform="translate(-1617 -870)"/><path d="M2007,1426.8a.4.4,0,0,0,.54.1l3.31-2,3.08-1.83a.42.42,0,0,0,.22-.39l-.07-1.2a.27.27,0,0,0-.19-.26l-1.38-.71a.43.43,0,0,0-.34,0l-1.43.56a.37.37,0,0,0-.25.23l-.42,1.07-.84,1.18a.34.34,0,0,0,.07.5l.73.53-2.79,1.66C2007,1426.39,2006.89,1426.63,2007,1426.8Zm3.72-4.08s0,0,0-.08l.37-.93,1.06-.43,1.07.56.05.79-2.6,1.55-.68-.5Z" transform="translate(-1617 -870)"/><path d="M1982.61,1443.27l-2,1.2a.37.37,0,1,0,.37.63l2-1.2a.4.4,0,0,0,.17-.53A.38.38,0,0,0,1982.61,1443.27Z" transform="translate(-1617 -870)"/><path d="M1996.45,1435l-12.12,7.2a.37.37,0,1,0,.37.63l12.12-7.2a.37.37,0,1,0-.37-.63Z" transform="translate(-1617 -870)"/><path d="M2015.15,1423.93l-16.8,10a.37.37,0,1,0,.37.63l16.8-10a.37.37,0,1,0-.37-.63Z" transform="translate(-1617 -870)"/><path d="M1982.76,1436.58a1.13,1.13,0,1,0,1.66.32A1.2,1.2,0,0,0,1982.76,1436.58Zm.77,1.3a.39.39,0,1,1,.18-.56A.41.41,0,0,1,1983.53,1437.88Z" transform="translate(-1617 -870)"/><path d="M1991.11,1431.61a1.13,1.13,0,1,0,1.66.32A1.21,1.21,0,0,0,1991.11,1431.61Zm.77,1.3a.39.39,0,1,1,.18-.56A.43.43,0,0,1,1991.89,1432.91Z" transform="translate(-1617 -870)"/><path d="M1999.44,1426.66a1.13,1.13,0,1,0,1.66.32A1.21,1.21,0,0,0,1999.44,1426.66Zm.77,1.3a.39.39,0,1,1,.18-.56A.41.41,0,0,1,2000.22,1428Z" transform="translate(-1617 -870)"/></svg>